<?xml version="1.0" standalone="no"?><!DOCTYPE svg PUBLIC "-//W3C//DTD SVG 1.1//EN" "http://www.w3.org/Graphics/SVG/1.1/DTD/svg11.dtd"><svg t="1773903073998" class="icon" viewBox="0 0 1024 1024" version="1.1" xmlns="http://www.w3.org/2000/svg" p-id="8397" xmlns:xlink="http://www.w3.org/1999/xlink" width="200" height="200"><path d="M251.06 998.33a281.54 25.67 0 1 0 563.08 0 281.54 25.67 0 1 0-563.08 0Z" fill="#E60012" p-id="8398"></path><path d="M251.06 291.42h563.09v706.9H251.06zM556.48 119.29c0 67.8-12 122.76-26.72 122.76S503 187.09 503 119.29 515 0 529.77 0s26.71 51.49 26.71 119.29z" fill="#E60012" p-id="8399"></path><path d="M251.06 291.3a281.54 25.67 0 1 0 563.08 0 281.54 25.67 0 1 0-563.08 0Z" fill="#E2E2E2" p-id="8400"></path><path d="M509.58 198.7h40.37v118.21h-40.37z" fill="#E2E2E2" p-id="8401"></path></svg>